<svg width="31" height="30" viewBox="0 0 31 30" fill="none" xmlns="http://www.w3.org/2000/svg">
<path d="M26.4852 5.51478C25.8468 4.87604 25.0887 4.36934 24.2544 4.02364C23.4201 3.67793 22.5258 3.5 21.6227 3.5C20.7196 3.5 19.8253 3.67793 18.991 4.02364C18.1567 4.36934 17.3987 4.87604 16.7602 5.51478L15.4352 6.83978L14.1102 5.51478C12.8206 4.22517 11.0715 3.50067 9.24771 3.50067C7.42392 3.50067 5.67482 4.22517 4.38521 5.51478C3.09559 6.8044 2.37109 8.55349 2.37109 10.3773C2.37109 12.2011 3.09559 13.9502 4.38521 15.2398L5.71021 16.5648L15.4352 26.2898L25.1602 16.5648L26.4852 15.2398C27.124 14.6013 27.6306 13.8433 27.9764 13.009C28.3221 12.1747 28.5 11.2804 28.5 10.3773C28.5 9.47417 28.3221 8.57991 27.9764 7.74559C27.6306 6.91126 27.124 6.15323 26.4852 5.51478Z" stroke="white" stroke-width="2" stroke-linecap="round" stroke-linejoin="round"/>
</svg>
