<svg width="31" height="32" viewBox="0 0 31 32" fill="none" xmlns="http://www.w3.org/2000/svg">
<path d="M7.75 3.28979L4 8.28979V25.7898C4 26.4528 4.26339 27.0887 4.73223 27.5576C5.20107 28.0264 5.83696 28.2898 6.5 28.2898H24C24.663 28.2898 25.2989 28.0264 25.7678 27.5576C26.2366 27.0887 26.5 26.4528 26.5 25.7898V8.28979L22.75 3.28979H7.75Z" stroke="white" stroke-width="2" stroke-linecap="round" stroke-linejoin="round"/>
<path d="M3.8125 8.03979H26.6875" stroke="white" stroke-width="2" stroke-linecap="round" stroke-linejoin="round"/>
<path d="M20.3334 13.2065C20.3334 14.5768 19.7978 15.8909 18.8445 16.8599C17.8912 17.8288 16.5982 18.3731 15.25 18.3731C13.9018 18.3731 12.6089 17.8288 11.6556 16.8599C10.7023 15.8909 10.1667 14.5768 10.1667 13.2065" stroke="white" stroke-width="2" stroke-linecap="round" stroke-linejoin="round"/>
</svg>
