<svg width="94" height="36" viewBox="0 0 94 36" fill="none" xmlns="http://www.w3.org/2000/svg">
<path d="M0.72 34.93C0.44 34.85 0.28 34.55 0.24 34.03C0.16 33.77 0.1 33.46 0.06 33.1C0.04 32.74 0.03 32.33 0.03 31.87C0.03 31.45 0.1 30.87 0.24 30.13C0.38 29.41 0.57 28.59 0.81 27.67C1.07 26.75 1.38 25.76 1.74 24.7C2.1 23.62 2.5 22.53 2.94 21.43C3.48 20.05 3.95 18.86 4.35 17.86C4.75 16.84 5.08 15.96 5.34 15.22C5.62 14.48 5.84 13.87 6 13.39C6.18 12.91 6.32 12.5 6.42 12.16C6.5 11.92 6.62 11.63 6.78 11.29C6.94 10.95 7.12 10.61 7.32 10.27C7.54 9.91 7.76 9.58 7.98 9.28C8.2 8.96 8.4 8.72 8.58 8.56C9.28 8.66 9.94 8.84 10.56 9.1C11.18 9.36 11.56 9.61 11.7 9.85C11.42 10.11 11.1 10.52 10.74 11.08C10.38 11.62 10.03 12.22 9.69 12.88C9.35 13.52 9.04 14.18 8.76 14.86C8.48 15.54 8.27 16.14 8.13 16.66C8.33 16.32 8.59 15.95 8.91 15.55C9.23 15.15 9.72 14.6 10.38 13.9C11.12 13.14 11.81 12.56 12.45 12.16C13.11 11.74 13.68 11.53 14.16 11.53C14.92 11.53 15.54 11.74 16.02 12.16C16.52 12.58 16.77 13.12 16.77 13.78C16.77 15.22 16.53 16.65 16.05 18.07C15.57 19.47 14.88 20.74 13.98 21.88C13.64 22.32 13.24 22.74 12.78 23.14C12.32 23.54 11.84 23.9 11.34 24.22C10.84 24.52 10.35 24.76 9.87 24.94C9.39 25.12 8.96 25.21 8.58 25.21C8.22 25.21 7.9 25.14 7.62 25C7.36 24.84 7.18 24.65 7.08 24.43C7.86 23.97 8.62 23.33 9.36 22.51C10.1 21.69 10.78 20.75 11.4 19.69C12.04 18.61 12.59 17.45 13.05 16.21C13.53 14.97 13.89 13.71 14.13 12.43C13.37 12.83 12.68 13.27 12.06 13.75C11.46 14.21 10.86 14.82 10.26 15.58C9.54 16.46 8.97 17.17 8.55 17.71C8.13 18.25 7.78 18.71 7.5 19.09C7.24 19.47 7.02 19.83 6.84 20.17C6.68 20.49 6.5 20.89 6.3 21.37C6.02 22.01 5.69 22.86 5.31 23.92C4.95 24.96 4.57 26.13 4.17 27.43C3.79 28.73 3.4 30.11 3 31.57C2.62 33.05 2.25 34.52 1.89 35.98C1.67 35.94 1.48 35.78 1.32 35.5C1.16 35.32 1.04 35.19 0.96 35.11C0.9 35.03 0.82 34.97 0.72 34.93ZM28.5914 12.58C28.5114 13.82 28.2914 14.89 27.9314 15.79C27.5714 16.67 27.0514 17.45 26.3714 18.13C25.7114 18.79 24.9014 19.39 23.9414 19.93C22.9814 20.47 21.8614 20.99 20.5814 21.49C20.5814 21.61 20.5714 21.74 20.5514 21.88C20.5514 22 20.5514 22.13 20.5514 22.27C20.5514 22.53 20.5714 22.8 20.6114 23.08C20.6514 23.36 20.7214 23.62 20.8214 23.86C20.9214 24.1 21.0614 24.3 21.2414 24.46C21.4214 24.6 21.6514 24.67 21.9314 24.67C22.4714 24.67 23.0014 24.55 23.5214 24.31C24.0414 24.07 24.5314 23.78 24.9914 23.44C25.4714 23.08 25.9114 22.7 26.3114 22.3C26.7314 21.88 27.1014 21.5 27.4214 21.16C27.6214 21.34 27.7914 21.51 27.9314 21.67C27.0314 22.87 26.0414 23.87 24.9614 24.67C23.9014 25.45 22.8914 25.95 21.9314 26.17C20.5514 26.01 19.4714 25.51 18.6914 24.67C17.9314 23.81 17.5514 22.78 17.5514 21.58C17.5514 20.76 17.6614 19.93 17.8814 19.09C18.1214 18.23 18.4414 17.41 18.8414 16.63C19.2614 15.83 19.7414 15.08 20.2814 14.38C20.8414 13.68 21.4314 13.07 22.0514 12.55C22.6914 12.03 23.3414 11.62 24.0014 11.32C24.6814 11.02 25.3514 10.87 26.0114 10.87C26.9314 10.99 27.7914 11.56 28.5914 12.58ZM26.5214 13.57C25.9814 13.65 25.4214 13.87 24.8414 14.23C24.2614 14.59 23.7114 15.07 23.1914 15.67C22.6914 16.27 22.2314 16.97 21.8114 17.77C21.3914 18.57 21.0614 19.43 20.8214 20.35C22.4214 19.55 23.7514 18.57 24.8114 17.41C25.8714 16.23 26.4414 14.95 26.5214 13.57ZM31.5452 13.51C31.4452 13.39 31.3552 13.14 31.2752 12.76C31.1952 12.36 31.1552 12.02 31.1552 11.74C31.6752 11.78 32.1752 11.82 32.6552 11.86C33.1352 11.88 33.5752 11.9 33.9752 11.92C34.2752 11.32 34.5952 10.73 34.9352 10.15C35.2952 9.55 35.6352 9.01 35.9552 8.53C36.2952 8.03 36.6052 7.61 36.8852 7.27C37.1852 6.93 37.4152 6.71 37.5752 6.61C37.7752 6.61 38.0252 6.65 38.3252 6.73C38.6452 6.79 38.9652 6.88 39.2852 7C39.6052 7.1 39.8952 7.21 40.1552 7.33C40.4152 7.45 40.5952 7.57 40.6952 7.69C40.0952 8.45 39.5752 9.16 39.1352 9.82C38.7152 10.46 38.2552 11.2 37.7552 12.04C38.1552 12.04 38.5552 12.03 38.9552 12.01C39.3752 11.99 39.7952 11.96 40.2152 11.92C40.3152 12.02 40.3952 12.15 40.4552 12.31C40.5152 12.45 40.5452 12.6 40.5452 12.76C39.5652 13.12 38.3752 13.32 36.9752 13.36C36.4752 14.32 36.0252 15.28 35.6252 16.24C35.2452 17.18 34.9152 18.09 34.6352 18.97C34.3752 19.85 34.1652 20.68 34.0052 21.46C33.8652 22.24 33.7952 22.94 33.7952 23.56C33.7952 24.44 34.1252 24.93 34.7852 25.03C35.3852 24.95 35.9552 24.8 36.4952 24.58C37.0352 24.36 37.5152 24.08 37.9352 23.74C38.0552 23.92 38.1252 24.07 38.1452 24.19C38.0252 24.37 37.8152 24.58 37.5152 24.82C37.2352 25.06 36.9252 25.29 36.5852 25.51C36.2452 25.75 35.9152 25.95 35.5952 26.11C35.2752 26.27 35.0352 26.36 34.8752 26.38C34.3752 26.36 33.8752 26.25 33.3752 26.05C32.8752 25.85 32.4152 25.6 31.9952 25.3C31.5952 25 31.2652 24.67 31.0052 24.31C30.7452 23.93 30.6152 23.56 30.6152 23.2C30.6152 22.72 30.6752 22.12 30.7952 21.4C30.9352 20.66 31.1252 19.86 31.3652 19C31.6052 18.14 31.8852 17.24 32.2052 16.3C32.5252 15.36 32.8752 14.43 33.2552 13.51H31.5452ZM50.6721 13.06C50.6521 13.44 50.5821 13.84 50.4621 14.26C50.3621 14.66 50.2321 15.03 50.0721 15.37C49.9121 15.69 49.7421 15.96 49.5621 16.18C49.3821 16.4 49.2121 16.51 49.0521 16.51C48.8321 16.49 48.7021 16.34 48.6621 16.06C48.6621 16 48.6821 15.91 48.7221 15.79C48.7821 15.65 48.8421 15.5 48.9021 15.34C48.9621 15.18 49.0121 15.02 49.0521 14.86C49.1121 14.7 49.1421 14.56 49.1421 14.44C49.1421 14.16 49.0721 13.93 48.9321 13.75C48.8121 13.55 48.6421 13.45 48.4221 13.45C47.6221 13.45 47.0121 13.95 46.5921 14.95C46.1721 15.95 45.9621 17.42 45.9621 19.36C45.9621 19.56 45.9721 19.68 45.9921 19.72C46.4121 19.7 46.7821 19.69 47.1021 19.69C47.4421 19.67 47.7721 19.66 48.0921 19.66C48.1121 19.7 48.1221 19.78 48.1221 19.9C48.1221 20.08 48.0821 20.21 48.0021 20.29C47.5421 20.39 47.1721 20.48 46.8921 20.56C46.6321 20.62 46.4321 20.68 46.2921 20.74C46.1521 20.8 46.0621 20.87 46.0221 20.95C46.0021 21.01 45.9921 21.1 45.9921 21.22C45.9921 21.38 45.9921 21.54 45.9921 21.7C46.0121 21.86 46.0221 22.06 46.0221 22.3C46.0221 23.98 45.5621 25.33 44.6421 26.35C43.7421 27.37 42.4821 27.96 40.8621 28.12C40.5821 28.1 40.2921 28.02 39.9921 27.88C39.6921 27.74 39.4021 27.56 39.1221 27.34C38.8621 27.12 38.6321 26.87 38.4321 26.59C38.2321 26.33 38.0921 26.06 38.0121 25.78C38.0121 25.02 38.1721 24.3 38.4921 23.62C38.8121 22.92 39.2421 22.31 39.7821 21.79C40.3421 21.25 40.9921 20.82 41.7321 20.5C42.4921 20.16 43.3121 19.96 44.1921 19.9C44.1921 19.4 44.1421 18.91 44.0421 18.43C43.9421 17.95 43.8321 17.49 43.7121 17.05C43.6121 16.59 43.5121 16.15 43.4121 15.73C43.3121 15.29 43.2621 14.86 43.2621 14.44C43.2621 13.9 43.3721 13.37 43.5921 12.85C43.8121 12.31 44.1021 11.82 44.4621 11.38C44.8221 10.92 45.2421 10.53 45.7221 10.21C46.2021 9.89 46.7021 9.67 47.2221 9.55C47.4421 9.61 47.7321 9.79 48.0921 10.09C48.4721 10.37 48.8421 10.69 49.2021 11.05C49.5621 11.41 49.8821 11.78 50.1621 12.16C50.4421 12.52 50.6121 12.82 50.6721 13.06ZM40.7721 26.74C41.2521 26.54 41.7021 26.25 42.1221 25.87C42.5621 25.49 42.9421 25.06 43.2621 24.58C43.5821 24.1 43.8321 23.59 44.0121 23.05C44.2121 22.51 44.3121 21.98 44.3121 21.46C43.9121 21.52 43.4721 21.71 42.9921 22.03C42.5121 22.33 42.0621 22.7 41.6421 23.14C41.2221 23.56 40.8721 24 40.5921 24.46C40.3121 24.92 40.1721 25.32 40.1721 25.66C40.1721 26.1 40.3721 26.46 40.7721 26.74ZM50.6632 24.49C50.6632 23.79 50.7332 22.97 50.8732 22.03C51.0132 21.07 51.2132 20.05 51.4732 18.97C51.7532 17.89 52.0732 16.76 52.4332 15.58C52.8132 14.4 53.2332 13.22 53.6932 12.04C54.0932 10.98 54.5532 9.91 55.0732 8.83C55.6132 7.75 56.1932 6.69 56.8132 5.65C57.4332 4.61 58.0732 3.62 58.7332 2.68C59.4132 1.74 60.0932 0.879999 60.7732 0.0999987C61.0932 0.0999987 61.4332 0.139999 61.7932 0.219999C62.1732 0.299999 62.5332 0.409999 62.8732 0.549998C63.2332 0.669999 63.5532 0.82 63.8332 1C64.1332 1.18 64.3732 1.36 64.5532 1.54C63.0532 3.08 61.7032 4.64 60.5032 6.22C59.3032 7.78 58.3532 9.25 57.6532 10.63C57.2732 11.39 56.9232 12.1 56.6032 12.76C56.3032 13.42 56.0232 14.08 55.7632 14.74C55.5032 15.38 55.2632 16.03 55.0432 16.69C54.8432 17.33 54.6532 18.01 54.4732 18.73C58.3132 13.83 61.1632 11.38 63.0232 11.38C63.5432 11.38 64.1032 11.55 64.7032 11.89C65.3032 12.23 65.8332 12.69 66.2932 13.27C65.6732 13.95 65.0332 14.77 64.3732 15.73C63.7132 16.69 63.1032 17.66 62.5432 18.64C62.0032 19.6 61.5532 20.5 61.1932 21.34C60.8532 22.16 60.6832 22.77 60.6832 23.17C60.6832 23.37 60.7132 23.51 60.7732 23.59C60.8332 23.65 60.9632 23.68 61.1632 23.68C61.4632 23.68 61.7032 23.64 61.8832 23.56C62.0632 23.48 62.1732 23.44 62.2132 23.44C62.3132 23.6 62.3732 23.71 62.3932 23.77C62.4132 23.83 62.4232 23.88 62.4232 23.92C62.4232 24 62.3032 24.12 62.0632 24.28C61.8232 24.42 61.5332 24.57 61.1932 24.73C60.8732 24.87 60.5532 25 60.2332 25.12C59.9132 25.24 59.6732 25.3 59.5132 25.3C59.3132 25.3 59.1132 25.24 58.9132 25.12C58.7132 25.02 58.5332 24.88 58.3732 24.7C58.2332 24.52 58.1132 24.32 58.0132 24.1C57.9332 23.88 57.8932 23.65 57.8932 23.41C57.8932 23.11 57.9732 22.67 58.1332 22.09C58.3132 21.49 58.5532 20.8 58.8532 20.02C59.1532 19.22 59.5132 18.35 59.9332 17.41C60.3532 16.47 60.8032 15.51 61.2832 14.53C61.2832 14.45 61.2432 14.41 61.1632 14.41C61.1032 14.41 60.9432 14.49 60.6832 14.65C60.4432 14.81 60.2132 14.97 59.9932 15.13C59.2732 15.67 58.5432 16.34 57.8032 17.14C57.0832 17.92 56.3732 18.78 55.6732 19.72C54.9932 20.66 54.3432 21.66 53.7232 22.72C53.1232 23.76 52.6032 24.81 52.1632 25.87C52.1032 26.01 52.0132 26.14 51.8932 26.26C51.7732 26.38 51.6732 26.44 51.5932 26.44C51.5332 26.44 51.4432 26.37 51.3232 26.23C51.2232 26.09 51.1232 25.91 51.0232 25.69C50.9432 25.49 50.8632 25.28 50.7832 25.06C50.7032 24.84 50.6632 24.65 50.6632 24.49ZM69.7313 26.05C68.5913 25.93 67.6813 25.43 67.0013 24.55C66.3213 23.67 65.9813 22.55 65.9813 21.19C65.9813 20.39 66.1013 19.56 66.3413 18.7C66.5813 17.84 66.9213 17.01 67.3613 16.21C67.8013 15.39 68.3213 14.62 68.9213 13.9C69.5213 13.18 70.1713 12.56 70.8713 12.04C71.9713 11.22 73.0013 10.81 73.9613 10.81C74.6013 11.15 75.2313 11.86 75.8513 12.94C75.9513 12.94 76.0413 12.94 76.1213 12.94C76.2013 12.92 76.2913 12.91 76.3913 12.91C77.4513 12.91 77.9813 13.85 77.9813 15.73C77.9813 16.99 77.7713 18.19 77.3513 19.33C76.9513 20.45 76.3813 21.47 75.6413 22.39C74.9213 23.31 74.0513 24.09 73.0313 24.73C72.0313 25.35 70.9313 25.79 69.7313 26.05ZM71.2613 16.6C70.9213 17.06 70.6013 17.56 70.3013 18.1C70.0013 18.64 69.7413 19.19 69.5213 19.75C69.3013 20.29 69.1313 20.82 69.0113 21.34C68.8913 21.84 68.8313 22.29 68.8313 22.69C68.8313 23.17 68.9113 23.63 69.0713 24.07C69.2313 24.51 69.4113 24.76 69.6113 24.82C70.5113 24.62 71.3313 24.25 72.0713 23.71C72.8313 23.15 73.4813 22.46 74.0213 21.64C74.5813 20.82 75.0113 19.89 75.3113 18.85C75.6313 17.81 75.7913 16.7 75.7913 15.52C75.7913 15 75.7613 14.59 75.7013 14.29C75.6413 13.99 75.5413 13.73 75.4013 13.51C74.5213 13.77 73.7313 14.19 73.0313 14.77C72.3513 15.35 71.7613 15.96 71.2613 16.6ZM77.2434 34.93C76.9634 34.85 76.8034 34.55 76.7634 34.03C76.6834 33.77 76.6234 33.46 76.5834 33.1C76.5634 32.74 76.5534 32.33 76.5534 31.87C76.5534 31.45 76.6234 30.87 76.7634 30.13C76.9034 29.41 77.0934 28.59 77.3334 27.67C77.5934 26.75 77.9034 25.76 78.2634 24.7C78.6234 23.62 79.0234 22.53 79.4634 21.43C80.0034 20.05 80.4734 18.86 80.8734 17.86C81.2734 16.84 81.6034 15.96 81.8634 15.22C82.1434 14.48 82.3634 13.87 82.5234 13.39C82.7034 12.91 82.8434 12.5 82.9434 12.16C83.0234 11.92 83.1434 11.63 83.3034 11.29C83.4634 10.95 83.6434 10.61 83.8434 10.27C84.0634 9.91 84.2834 9.58 84.5034 9.28C84.7234 8.96 84.9234 8.72 85.1034 8.56C85.8034 8.66 86.4634 8.84 87.0834 9.1C87.7034 9.36 88.0834 9.61 88.2234 9.85C87.9434 10.11 87.6234 10.52 87.2634 11.08C86.9034 11.62 86.5534 12.22 86.2134 12.88C85.8734 13.52 85.5634 14.18 85.2834 14.86C85.0034 15.54 84.7934 16.14 84.6534 16.66C84.8534 16.32 85.1134 15.95 85.4334 15.55C85.7534 15.15 86.2434 14.6 86.9034 13.9C87.6434 13.14 88.3334 12.56 88.9734 12.16C89.6334 11.74 90.2034 11.53 90.6834 11.53C91.4434 11.53 92.0634 11.74 92.5434 12.16C93.0434 12.58 93.2934 13.12 93.2934 13.78C93.2934 15.22 93.0534 16.65 92.5734 18.07C92.0934 19.47 91.4034 20.74 90.5034 21.88C90.1634 22.32 89.7634 22.74 89.3034 23.14C88.8434 23.54 88.3634 23.9 87.8634 24.22C87.3634 24.52 86.8734 24.76 86.3934 24.94C85.9134 25.12 85.4834 25.21 85.1034 25.21C84.7434 25.21 84.4234 25.14 84.1434 25C83.8834 24.84 83.7034 24.65 83.6034 24.43C84.3834 23.97 85.1434 23.33 85.8834 22.51C86.6234 21.69 87.3034 20.75 87.9234 19.69C88.5634 18.61 89.1134 17.45 89.5734 16.21C90.0534 14.97 90.4134 13.71 90.6534 12.43C89.8934 12.83 89.2034 13.27 88.5834 13.75C87.9834 14.21 87.3834 14.82 86.7834 15.58C86.0634 16.46 85.4934 17.17 85.0734 17.71C84.6534 18.25 84.3034 18.71 84.0234 19.09C83.7634 19.47 83.5434 19.83 83.3634 20.17C83.2034 20.49 83.0234 20.89 82.8234 21.37C82.5434 22.01 82.2134 22.86 81.8334 23.92C81.4734 24.96 81.0934 26.13 80.6934 27.43C80.3134 28.73 79.9234 30.11 79.5234 31.57C79.1434 33.05 78.7734 34.52 78.4134 35.98C78.1934 35.94 78.0034 35.78 77.8434 35.5C77.6834 35.32 77.5634 35.19 77.4834 35.11C77.4234 35.03 77.3434 34.97 77.2434 34.93Z" fill="white"/>
</svg>
